<?xml version="1.0" encoding="UTF-8" standalone="no"?>
<svg
   xmlns:dc="http://purl.org/dc/elements/1.1/"
   xmlns:cc="http://creativecommons.org/ns#"
   xmlns:rdf="http://www.w3.org/1999/02/22-rdf-syntax-ns#"
   xmlns:svg="http://www.w3.org/2000/svg"
   xmlns="http://www.w3.org/2000/svg"
   xmlns:sodipodi="http://sodipodi.sourceforge.net/DTD/sodipodi-0.dtd"
   xmlns:inkscape="http://www.inkscape.org/namespaces/inkscape"
   viewBox="0 0 252.17801 256.95459"
   height="256.95456"
   width="252.17801"
   xml:space="preserve"
   id="svg2"
   version="1.1"
   inkscape:version="0.91 r13725"
   sodipodi:docname="Flower_ICQ.svg"><sodipodi:namedview
     pagecolor="#ffffff"
     bordercolor="#666666"
     borderopacity="1"
     objecttolerance="10"
     gridtolerance="10"
     guidetolerance="10"
     inkscape:pageopacity="0"
     inkscape:pageshadow="2"
     inkscape:window-width="1680"
     inkscape:window-height="987"
     id="namedview15"
     showgrid="false"
     fit-margin-top="0"
     fit-margin-left="0"
     fit-margin-right="0"
     fit-margin-bottom="0"
     inkscape:zoom="3.5291666"
     inkscape:cx="65.295676"
     inkscape:cy="89.342097"
     inkscape:window-x="-8"
     inkscape:window-y="-8"
     inkscape:window-maximized="1"
     inkscape:current-layer="svg2" /><metadata
     id="metadata8"><rdf:RDF><cc:Work
         rdf:about=""><dc:format>image/svg+xml</dc:format><dc:type
           rdf:resource="http://purl.org/dc/dcmitype/StillImage" /><dc:title></dc:title></cc:Work></rdf:RDF></metadata><defs
     id="defs6" /><g
     transform="matrix(3.6975071,0,0,-3.6975071,-11.440329,495.87281)"
     id="g10"><g
       transform="scale(0.1,0.1)"
       id="g12"><path
         id="path22"
         style="fill:#2b2828;fill-opacity:1;fill-rule:evenodd;stroke:none"
         d="m 277.328,1322.17 c -21.555,4.9 -39.191,2.94 -57.808,-6.85 -20.579,-12.74 -32.336,-32.34 -37.235,-59.77 -4.898,-28.42 0,-55.85 14.699,-83.28 l 6.856,-9.8 -23.512,7.83 c -29.394,6.87 -56.828,2.95 -84.2616,-11.75 -28.4141,-14.7 -46.0508,-35.27 -57.8086,-63.69 -10.7773,-27.43 -9.7969,-53.88 3.9219,-78.38 5.8789,-10.78 14.6953,-19.593 22.5351,-25.472 11.754,-11.758 26.4532,-18.621 44.0902,-21.555 l 6.855,-1.961 -14.695,-12.738 C 87.2461,942.996 79.4102,928.297 74.5117,913.605 c -4.8984,-17.64 -2.9414,-35.277 6.8594,-51.933 4.8984,-7.836 9.7969,-14.695 17.6328,-19.594 7.8401,-6.859 17.6371,-11.758 29.3941,-12.738 21.555,-4.899 44.09,-4.899 68.586,2.941 l -17.636,-29.394 -4.899,-12.739 c -9.797,-31.351 -6.859,-58.785 7.836,-87.199 6.863,-10.777 14.699,-20.574 22.535,-29.394 11.762,-10.778 26.453,-17.633 44.094,-22.535 29.395,-7.84 58.785,-6.856 87.199,7.839 27.434,14.696 45.071,38.211 53.887,67.606 l 0.98,5.879 c 18.618,-20.574 36.254,-34.297 55.848,-39.192 19.598,-5.882 39.195,-4.898 56.828,6.86 16.656,9.797 28.414,26.453 34.293,47.027 4.899,21.555 4.899,43.109 0,67.606 9.797,-6.86 19.598,-11.758 31.356,-14.696 31.351,-9.801 58.785,-8.82 86.218,5.879 26.454,14.695 44.094,38.211 52.907,68.582 7.843,29.395 5.879,57.809 -8.813,85.242 l -4.902,7.84 c -7.84,11.758 -15.676,23.516 -27.434,31.352 -9.797,6.856 -21.554,11.756 -32.332,16.656 30.371,14.7 51.926,35.27 61.727,61.73 6.855,21.55 4.898,39.19 -4.903,56.82 l 0,1.96 c -11.753,19.6 -27.433,32.34 -51.925,39.19 -14.7,2.94 -31.356,2.94 -46.051,1.97 l -32.332,-6.87 10.777,24.5 c 9.797,31.36 6.86,61.73 -9.797,90.14 l -2.941,4.9 c -14.695,24.5 -36.25,39.19 -65.645,47.03 -30.371,7.84 -58.789,4.9 -86.222,-9.8 -27.434,-14.69 -47.028,-37.23 -55.848,-66.62 l 0,-1.96 -0.98,-6.86 -3.918,6.86 -9.797,17.63 c -15.676,24.5 -35.274,39.2 -59.766,46.05 z m 249.844,-58.78 c 4.898,-9.8 7.84,-21.56 7.84,-34.3 l -2.942,-21.55 c -3.922,-10.78 -8.816,-20.58 -14.699,-29.4 l -88.18,-107.77 c -8.816,6.86 -18.613,11.75 -28.414,16.65 l -9.797,110.72 -0.98,39.19 0.98,9.8 c 4.899,19.59 18.618,34.29 36.254,44.09 17.633,9.8 37.231,11.76 55.848,4.9 20.574,-4.9 35.273,-15.68 44.09,-32.33 z m -303.734,-19.6 c 0.98,17.64 7.835,29.39 19.597,36.25 5.879,4.9 14.695,4.9 22.535,0.98 17.637,-4.9 32.332,-17.63 44.09,-42.13 4.899,-9.8 9.797,-19.6 11.758,-31.35 l 19.594,-115.62 -14.696,-4.9 -87.199,95.05 -4.902,9.79 c -7.84,17.64 -12.735,34.3 -10.777,51.93 z m -52.911,-114.63 26.457,-10.78 86.223,-62.71 c -7.84,-9.79 -12.738,-19.6 -15.68,-29.39 l -141.089,-17.64 -9.797,1.96 c -17.6371,2.94 -29.3949,10.78 -37.2308,25.47 -7.8399,14.7 -7.8399,29.4 -1.961,44.1 6.8594,18.61 19.5977,33.31 38.2108,41.15 17.637,9.79 35.274,12.73 54.867,7.84 z m 93.082,-159.707 6.86,-19.598 2.937,-6.859 C 258.711,930.262 247.93,918.5 236.176,907.723 l -29.395,-24.493 -7.84,-4.902 c -18.613,-8.812 -34.289,-11.754 -50.945,-9.797 -14.699,0.985 -26.457,5.879 -31.355,14.699 l -2.938,10.778 1.957,8.82 c 4.899,14.692 17.637,29.391 40.172,40.168 11.758,4.899 21.555,9.801 29.395,11.758 z m 305.696,158.727 c 17.633,7.83 34.289,9.79 51.925,7.83 16.657,-1.96 28.415,-9.8 34.293,-21.55 l 3.918,-12.74 -1.957,-9.8 c -6.859,-17.63 -21.554,-31.35 -46.05,-42.13 -9.797,-4.9 -20.575,-6.86 -32.332,-8.81 l -120.512,-14.7 -1.965,6.86 -1.957,2.93 3.922,4.91 98.957,82.3 z M 319.457,1035.1 c 11.758,10.78 27.434,17.63 46.051,17.63 17.637,0 34.293,-6.85 45.07,-17.63 13.715,-13.72 19.594,-28.42 19.594,-46.053 0,-17.637 -5.879,-34.293 -19.594,-46.051 -12.738,-12.734 -27.433,-19.598 -45.07,-19.598 -18.617,0 -34.293,6.864 -46.051,19.598 -12.738,11.758 -19.594,28.414 -19.594,46.051 0,17.633 6.856,32.333 19.594,46.053 z m 22.535,-142.073 c 1.961,-33.312 4.899,-68.586 9.797,-106.797 l 0,-39.191 -0.98,-9.797 c -6.856,-17.637 -18.614,-32.332 -36.25,-40.172 -17.637,-9.8 -36.25,-11.758 -53.887,-6.859 -19.598,4.902 -34.297,16.656 -42.133,32.336 -4.898,9.797 -8.82,21.555 -8.82,33.312 l 4.898,22.532 c 1.965,9.8 6.863,19.597 14.699,27.437 l 82.305,97.977 c 9.797,-4.899 19.594,-9.797 30.371,-10.778 z m 75.442,12.739 41.156,-42.133 25.469,-31.352 4.902,-9.797 c 8.816,-16.656 13.719,-32.336 11.754,-50.949 -1.957,-17.637 -7.836,-30.375 -19.594,-35.273 -6.855,-4.899 -14.695,-4.899 -22.531,-3.918 -18.621,4.898 -33.313,19.594 -44.094,43.109 l -11.758,32.332 -14.695,85.242 16.656,5.879 z m 44.089,60.746 110.719,9.797 39.192,0.98 9.796,-0.98 c 14.7,-4.899 28.415,-13.715 36.254,-28.414 9.797,-10.778 14.696,-25.477 14.696,-42.129 l -2.938,-19.594 c -4.902,-19.598 -16.656,-34.297 -33.312,-42.133 -17.637,-9.801 -35.274,-11.758 -54.871,-4.898 -11.754,2.937 -19.594,7.836 -26.454,15.675 l -102.878,85.243 6.863,14.695 2.933,11.758"
         inkscape:connector-curvature="0" /><path
         id="path24"
         style="fill:#48f600;fill-opacity:1;fill-rule:evenodd;stroke:none"
         d="m 527.172,1263.39 c 4.898,-9.8 7.84,-21.56 7.84,-34.3 l -2.942,-21.55 c -3.922,-10.78 -8.816,-20.58 -14.699,-29.4 l -88.18,-107.77 c -8.816,6.86 -18.613,11.75 -28.414,16.65 l -9.797,110.72 -0.98,39.19 0.98,9.8 c 4.899,19.59 18.618,34.29 36.254,44.09 17.633,9.8 37.231,11.76 55.848,4.9 20.574,-4.9 35.273,-15.68 44.09,-32.33 z m -303.734,-19.6 c 0.98,17.64 7.835,29.39 19.597,36.25 5.879,4.9 14.695,4.9 22.535,0.98 17.637,-4.9 32.332,-17.63 44.09,-42.13 4.899,-9.8 9.797,-19.6 11.758,-31.35 l 19.594,-115.62 -14.696,-4.9 -87.199,95.05 -4.902,9.79 c -7.84,17.64 -12.735,34.3 -10.777,51.93 z m -52.911,-114.63 26.457,-10.78 86.223,-62.71 c -7.84,-9.79 -12.738,-19.6 -15.68,-29.39 l -141.089,-17.64 -9.797,1.96 c -17.6371,2.94 -29.3949,10.78 -37.2308,25.47 -7.8399,14.7 -7.8399,29.4 -1.961,44.1 6.8594,18.61 19.5977,33.31 38.2108,41.15 17.637,9.79 35.274,12.73 54.867,7.84 z m 398.778,-0.98 c 17.633,7.83 34.289,9.79 51.925,7.83 16.657,-1.96 28.415,-9.8 34.293,-21.55 l 3.918,-12.74 -1.957,-9.8 c -6.859,-17.63 -21.554,-31.35 -46.05,-42.13 -9.797,-4.9 -20.575,-6.86 -32.332,-8.81 l -120.512,-14.7 -1.965,6.86 -1.957,2.93 3.922,4.91 98.957,82.3 z M 341.992,893.027 c 1.961,-33.312 4.899,-68.586 9.797,-106.797 l 0,-39.191 -0.98,-9.797 c -6.856,-17.637 -18.614,-32.332 -36.25,-40.172 -17.637,-9.8 -36.25,-11.758 -53.887,-6.859 -19.598,4.902 -34.297,16.656 -42.133,32.336 -4.898,9.797 -8.82,21.555 -8.82,33.312 l 4.898,22.532 c 1.965,9.8 6.863,19.597 14.699,27.437 l 82.305,97.977 c 9.797,-4.899 19.594,-9.797 30.371,-10.778 z m 75.442,12.739 41.156,-42.133 25.469,-31.352 4.902,-9.797 c 8.816,-16.656 13.719,-32.336 11.754,-50.949 -1.957,-17.637 -7.836,-30.375 -19.594,-35.273 -6.855,-4.899 -14.695,-4.899 -22.531,-3.918 -18.621,4.898 -33.313,19.594 -44.094,43.109 l -11.758,32.332 -14.695,85.242 16.656,5.879 z m 44.089,60.746 110.719,9.797 39.192,0.98 9.796,-0.98 c 14.7,-4.899 28.415,-13.715 36.254,-28.414 9.797,-10.778 14.696,-25.477 14.696,-42.129 l -2.938,-19.594 c -4.902,-19.598 -16.656,-34.297 -33.312,-42.133 -17.637,-9.801 -35.274,-11.758 -54.871,-4.898 -11.754,2.937 -19.594,7.836 -26.454,15.675 l -102.878,85.243 6.863,14.695 2.933,11.758"
         inkscape:connector-curvature="0" /><path
         id="path26"
         style="fill:#ff001c;fill-opacity:1;fill-rule:evenodd;stroke:none"
         d="m 263.609,969.453 6.86,-19.598 2.937,-6.859 C 258.711,930.262 247.93,918.5 236.176,907.723 l -29.395,-24.493 -7.84,-4.902 c -18.613,-8.812 -34.289,-11.754 -50.945,-9.797 -14.699,0.985 -26.457,5.879 -31.355,14.699 l -2.938,10.778 1.957,8.82 c 4.899,14.692 17.637,29.391 40.172,40.168 11.758,4.899 21.555,9.801 29.395,11.758 l 78.382,14.699"
         inkscape:connector-curvature="0" /><path
         id="path28"
         style="fill:#fdfb12;fill-opacity:1;fill-rule:evenodd;stroke:none"
         d="m 319.457,1035.1 c 11.758,10.78 27.434,17.63 46.051,17.63 17.637,0 34.293,-6.85 45.07,-17.63 13.715,-13.72 19.594,-28.42 19.594,-46.053 0,-17.637 -5.879,-34.293 -19.594,-46.051 -12.738,-12.734 -27.433,-19.598 -45.07,-19.598 -18.617,0 -34.293,6.864 -46.051,19.598 -12.738,11.758 -19.594,28.414 -19.594,46.051 0,17.633 6.856,32.333 19.594,46.053"
         inkscape:connector-curvature="0" /></g></g></svg>