<?xml version="1.0" encoding="iso-8859-1"?>
<!-- Generator: Adobe Illustrator 19.0.0, SVG Export Plug-In . SVG Version: 6.00 Build 0)  -->
<svg version="1.1" id="Capa_1" xmlns="http://www.w3.org/2000/svg" xmlns:xlink="http://www.w3.org/1999/xlink" x="0px" y="0px"
	 viewBox="0 0 512 512" style="enable-background:new 0 0 512 512;" xml:space="preserve">
<path style="fill:#3E4347;" d="M453.498,452.352c-5.936,0-10.768-4.784-10.8-10.736c-0.032-4.592,2.816-8.528,6.848-10.112
	c8.512-14.016,19.104-110.784-37.856-207.904C351.306,116.352,271.274,95.472,236.106,115.088
	c-5.264,2.912-11.808,1.024-14.688-4.16c-2.928-5.216-1.04-11.792,4.16-14.688c43.968-24.528,136.56-4.608,204.832,116.608
	c60.016,102.288,51.344,205.632,37.76,229.488c-4.704,8.256-10.528,10-14.608,10.032
	C453.546,452.352,453.514,452.352,453.498,452.352z"/>
<path style="fill:#A5856D;" d="M385.002,0H76.682c-23.68,0-42.72,19.04-42.72,42.72v426.56c0,23.68,19.04,42.72,42.72,42.72h308.32
	c23.52,0,42.72-19.04,42.72-42.72V42.72C427.722,19.04,408.522,0,385.002,0z M230.906,137.936c-15.84,0-28.656-12.944-28.656-28.656
	c0-15.84,12.816-28.656,28.656-28.656c15.712,0,28.528,12.816,28.528,28.656C259.434,124.992,246.618,137.936,230.906,137.936z"/>
<path style="fill:#8F6D52;" d="M230.954,60.064c-27.216,0-49.216,22-49.216,49.216c0,26.976,22,49.216,49.216,49.216
	c26.976,0,48.976-22.24,48.976-49.216C279.93,82.064,257.93,60.064,230.954,60.064z M230.906,135.936
	c-14.736,0-26.656-12.048-26.656-26.656c0-14.736,11.92-26.656,26.656-26.656c14.608,0,26.528,11.92,26.528,26.656
	C257.434,123.888,245.514,135.936,230.906,135.936z"/>
<path style="fill:#3E4347;" d="M451.754,452.64c-13.312,0-19.376-18.848-30.384-53.088c-12.8-39.76-32.144-99.84-69.408-157.984
	c-41.616-67.952-90.16-98.512-113.504-113.2c-13.376-8.416-20.08-12.656-19.856-21.2c0.128-4.544,2.656-8.544,6.976-10.944
	c5.216-2.928,11.776-1.04,14.704,4.16c0.768,1.376,1.184,2.848,1.328,4.304c2.304,1.568,5.456,3.552,8.368,5.392
	c24.72,15.568,76.16,47.952,120.288,120.016c38.672,60.32,58.528,122,71.664,162.832c4.928,15.312,10.448,32.48,13.888,38.064
	c3.776,0.832,6.992,3.68,8.08,7.68c1.6,5.744-1.776,11.696-7.536,13.28C454.73,452.416,453.194,452.64,451.754,452.64z"/>
<g>
	<rect x="86.906" y="318.224" style="fill:#FFFFFF;" width="21.856" height="142.048"/>
	<rect x="130.522" y="318.224" style="fill:#FFFFFF;" width="8.416" height="142.048"/>
	<rect x="143.146" y="318.224" style="fill:#FFFFFF;" width="6.384" height="142.048"/>
	<rect x="153.05" y="318.224" style="fill:#FFFFFF;" width="4.112" height="142.048"/>
	<rect x="163.018" y="318.224" style="fill:#FFFFFF;" width="7.472" height="142.048"/>
	<rect x="176.154" y="318.224" style="fill:#FFFFFF;" width="5.136" height="142.048"/>
	<rect x="186.138" y="318.224" style="fill:#FFFFFF;" width="5.6" height="142.048"/>
	<rect x="199.69" y="318.224" style="fill:#FFFFFF;" width="5.616" height="142.048"/>
	<rect x="212.778" y="318.224" style="fill:#FFFFFF;" width="7.488" height="142.048"/>
	<rect x="227.738" y="318.224" style="fill:#FFFFFF;" width="7.472" height="142.048"/>
	<rect x="266.25" y="318.224" style="fill:#FFFFFF;" width="6.08" height="142.048"/>
	<rect x="278.874" y="318.224" style="fill:#FFFFFF;" width="4.208" height="142.048"/>
	<rect x="291.034" y="318.224" style="fill:#FFFFFF;" width="4.672" height="142.048"/>
	<rect x="300.97" y="318.224" style="fill:#FFFFFF;" width="14.496" height="142.048"/>
	<rect x="329.61" y="318.224" style="fill:#FFFFFF;" width="3.744" height="142.048"/>
	<rect x="319.658" y="318.224" style="fill:#FFFFFF;" width="6.08" height="142.048"/>
	<rect x="337.274" y="318.224" style="fill:#FFFFFF;" width="7.008" height="142.048"/>
	<rect x="242.554" y="318.224" style="fill:#FFFFFF;" width="16.816" height="142.048"/>
	<rect x="113.834" y="318.224" style="fill:#FFFFFF;" width="12.144" height="142.048"/>
	<rect x="349.45" y="318.224" style="fill:#FFFFFF;" width="25.328" height="142.048"/>
</g>
<g>
</g>
<g>
</g>
<g>
</g>
<g>
</g>
<g>
</g>
<g>
</g>
<g>
</g>
<g>
</g>
<g>
</g>
<g>
</g>
<g>
</g>
<g>
</g>
<g>
</g>
<g>
</g>
<g>
</g>
</svg>
