<?xml version="1.0" encoding="iso-8859-1"?>
<!-- Generator: Adobe Illustrator 19.0.0, SVG Export Plug-In . SVG Version: 6.00 Build 0)  -->
<svg version="1.1" id="Capa_1" xmlns="http://www.w3.org/2000/svg" xmlns:xlink="http://www.w3.org/1999/xlink" x="0px" y="0px"
	 viewBox="0 0 468.293 468.293" style="enable-background:new 0 0 468.293 468.293;" xml:space="preserve">
<rect x="71.992" y="122.818" style="fill:#3A556A;" width="324.365" height="203.083"/>
<g>
	<path style="fill:#64798A;" d="M449.561,286.79H18.732C8.386,286.79,0,278.403,0,268.058v-87.415
		c0-10.345,8.386-18.732,18.732-18.732h430.829c10.345,0,18.732,8.386,18.732,18.732v87.415
		C468.293,278.403,459.906,286.79,449.561,286.79z"/>
	<path style="fill:#64798A;" d="M449.561,143.18H18.732C8.386,143.18,0,134.793,0,124.448V37.034
		c0-10.345,8.386-18.732,18.732-18.732h430.829c10.345,0,18.732,8.386,18.732,18.732v87.415
		C468.293,134.793,459.906,143.18,449.561,143.18z"/>
</g>
<g>
	<path style="fill:#D5D6DB;" d="M379.113,43.277c-3.451,0-6.244,2.796-6.244,6.244v62.439c0,3.448,2.793,6.244,6.244,6.244
		c3.451,0,6.244-2.796,6.244-6.244V49.521C385.357,46.073,382.564,43.277,379.113,43.277z"/>
	<path style="fill:#D5D6DB;" d="M410.333,55.765c-3.451,0-6.244,2.796-6.244,6.244v37.463c0,3.448,2.793,6.244,6.244,6.244
		c3.451,0,6.244-2.796,6.244-6.244V62.009C416.576,58.561,413.784,55.765,410.333,55.765z"/>
	<path style="fill:#D5D6DB;" d="M347.894,55.765c-3.451,0-6.244,2.796-6.244,6.244v37.463c0,3.448,2.793,6.244,6.244,6.244
		c3.451,0,6.244-2.796,6.244-6.244V62.009C354.137,58.561,351.345,55.765,347.894,55.765z"/>
	<path style="fill:#D5D6DB;" d="M379.113,186.887c-3.451,0-6.244,2.796-6.244,6.244v62.439c0,3.448,2.793,6.244,6.244,6.244
		c3.451,0,6.244-2.796,6.244-6.244v-62.439C385.357,189.683,382.564,186.887,379.113,186.887z"/>
	<path style="fill:#D5D6DB;" d="M410.333,199.375c-3.451,0-6.244,2.796-6.244,6.244v37.463c0,3.448,2.793,6.244,6.244,6.244
		c3.451,0,6.244-2.796,6.244-6.244v-37.463C416.576,202.171,413.784,199.375,410.333,199.375z"/>
	<path style="fill:#D5D6DB;" d="M347.894,199.375c-3.451,0-6.244,2.796-6.244,6.244v37.463c0,3.448,2.793,6.244,6.244,6.244
		c3.451,0,6.244-2.796,6.244-6.244v-37.463C354.137,202.171,351.345,199.375,347.894,199.375z"/>
</g>
<path style="fill:#64798A;" d="M449.561,430.399H18.732C8.386,430.399,0,422.013,0,411.668v-87.415
	c0-10.345,8.386-18.732,18.732-18.732h430.829c10.345,0,18.732,8.386,18.732,18.732v87.415
	C468.293,422.013,459.906,430.399,449.561,430.399z"/>
<g>
	<path style="fill:#D5D6DB;" d="M379.113,330.497c-3.451,0-6.244,2.796-6.244,6.244v62.439c0,3.448,2.793,6.244,6.244,6.244
		c3.451,0,6.244-2.796,6.244-6.244v-62.439C385.357,333.293,382.564,330.497,379.113,330.497z"/>
	<path style="fill:#D5D6DB;" d="M410.333,342.985c-3.451,0-6.244,2.796-6.244,6.244v37.463c0,3.448,2.793,6.244,6.244,6.244
		c3.451,0,6.244-2.796,6.244-6.244v-37.463C416.576,345.781,413.784,342.985,410.333,342.985z"/>
	<path style="fill:#D5D6DB;" d="M347.894,342.985c-3.451,0-6.244,2.796-6.244,6.244v37.463c0,3.448,2.793,6.244,6.244,6.244
		c3.451,0,6.244-2.796,6.244-6.244v-37.463C354.137,345.781,351.345,342.985,347.894,342.985z"/>
</g>
<g>
	<circle style="fill:#FCD462;" cx="82.938" cy="224.35" r="31.22"/>
	<circle style="fill:#FCD462;" cx="82.938" cy="80.74" r="31.22"/>
	<circle style="fill:#FCD462;" cx="82.938" cy="367.953" r="31.22"/>
</g>
<g>
	<circle style="fill:#44C4A1;" cx="157.865" cy="80.74" r="21.854"/>
	<circle style="fill:#44C4A1;" cx="157.865" cy="224.35" r="21.854"/>
	<circle style="fill:#44C4A1;" cx="157.865" cy="367.953" r="21.854"/>
</g>
<g>
	<circle style="fill:#F6C358;" cx="82.938" cy="80.74" r="18.732"/>
	<circle style="fill:#F6C358;" cx="82.938" cy="224.35" r="18.732"/>
	<circle style="fill:#F6C358;" cx="82.938" cy="367.953" r="18.732"/>
</g>
<g>
	<path style="fill:#3A556A;" d="M48.594,430.399h49.951v7.104c0,6.897-5.591,12.488-12.488,12.488H61.082
		c-6.897,0-12.488-5.591-12.488-12.488V430.399z"/>
	<path style="fill:#3A556A;" d="M369.747,430.399h49.951v7.104c0,6.897-5.591,12.488-12.488,12.488h-24.976
		c-6.897,0-12.488-5.591-12.488-12.488V430.399z"/>
</g>
<g>
</g>
<g>
</g>
<g>
</g>
<g>
</g>
<g>
</g>
<g>
</g>
<g>
</g>
<g>
</g>
<g>
</g>
<g>
</g>
<g>
</g>
<g>
</g>
<g>
</g>
<g>
</g>
<g>
</g>
</svg>
